<svg
  xmlns="http://www.w3.org/2000/svg"
  width="48"
  height="48"
  viewBox="0 0 48 48"
>
  <g>
    <path
      d="M44.539,41.4,36.861,28.489A1,1,0,0,0,36,28H12a1,1,0,0,0-.86.489l-7.671,12.9Z"
      fill="#636363"
    ></path>
    <path d="M6,46a3,3,0,0,1,0-6H42a3,3,0,0,1,0,6" fill="#363636"></path>
    <polygon
      points="39.594 37 35.432 30 12.568 30 8.406 37 39.594 37"
      fill="#c2eff4"
    ></polygon>
    <path
      d="M32.887,6.556a1,1,0,0,0-.44-.451l-8-4a1,1,0,0,0-.894,0l-8,4a1,1,0,0,0-.44.451L24,11Z"
      fill="#c2eff4"
    ></path>
    <path
      d="M24,11V22a1,1,0,0,0,.447-.105l8-4A1,1,0,0,0,33,17V7a1,1,0,0,0-.113-.444Z"
      fill="#7ed3dd"
    ></path>
    <path
      d="M15.113,6.556A1,1,0,0,0,15,7V17a1,1,0,0,0,.553.895l8,4A1,1,0,0,0,24,22V11Z"
      fill="#a0e6ee"
    ></path>
  </g>
</svg>
