<svg class="icon" xmlns="http://www.w3.org/2000/svg" width="24" height="24" viewBox="0 0 24 24"><g class="icon-wrapper"><path d="M3.238,15.016A8.879,8.879,0,0,1,3,13,9.023,9.023,0,0,1,7.531,5.2a4.931,4.931,0,0,1-.511-2A11.033,11.033,0,0,0,1,13a10.917,10.917,0,0,0,.358,2.749,3.025,3.025,0,1,0,1.88-.733Z" fill="currentColor"></path><path d="M14.94,2.407a3.026,3.026,0,1,0-.3,1.991A9.023,9.023,0,0,1,21,13v.023a4.965,4.965,0,0,1,1.977.556c.011-.193.024-.386.024-.579A11.024,11.024,0,0,0,14.94,2.407Z" fill="currentColor"></path><path d="M22.16,15.4a2.99,2.99,0,0,0-4.036,4.174,8.942,8.942,0,0,1-10.647,1.2A4.935,4.935,0,0,1,6.018,22.2,10.89,10.89,0,0,0,19.7,20.821a2.971,2.971,0,0,0,.955.179,3,3,0,0,0,1.5-5.6Z" fill="#7553fd" class="icon-accent"></path></g></svg>