<svg class="icon" xmlns="http://www.w3.org/2000/svg" width="24" height="24" viewBox="0 0 24 24"><g class="icon-wrapper"><path class="icon-accent" d="M22.641,4.232c-.427-.354-1.056-.296-1.409,.128L11.933,15.519l-.433-.433-1.286,1.543,1.078,1.078c.188,.188,.442,.293,.707,.293,.015,0,.03,0,.045,0,.281-.013,.543-.143,.724-.359L22.769,5.64c.354-.424,.296-1.055-.128-1.408Z" fill="#7553fd"></path><path d="M6,18c-.265,0-.52-.105-.707-.293L1.293,13.707c-.391-.391-.391-1.023,0-1.414s1.023-.391,1.414,0l3.226,3.226L15.231,4.36c.354-.424,.983-.481,1.409-.128,.424,.354,.481,.984,.128,1.408L6.769,17.64c-.181,.216-.442,.346-.724,.359-.015,0-.03,0-.045,0Z" fill="currentColor"></path></g></svg>