<svg class="icon" xmlns="http://www.w3.org/2000/svg" width="24" height="24" viewBox="0 0 24 24"><g class="icon-wrapper" fill="none" stroke-linecap="round" stroke-linejoin="round" stroke-width="2"><path stroke="currentColor" d="M3 14V4a1 1 0 0 1 1-1h16a1 1 0 0 1 1 1v6M9 18H1v0a3 3 0 0 0 3 3h5"/><circle class="icon-accent" cx="18" cy="18" r="3" stroke="#7553fd"/><path class="icon-accent" stroke="#7553fd" d="M18 15v-2M20.121 15.879l1.415-1.415M21 18h2M20.121 20.121l1.415 1.415M18 21v2M15.879 20.121l-1.415 1.415M15 18h-2M15.879 15.879l-1.415-1.415"/></g></svg>