<svg class="icon" xmlns="http://www.w3.org/2000/svg" width="24" height="24" viewBox="0 0 24 24"><g class="icon-wrapper"><path d="M23,13V10.5l-3.248-.443a7.918,7.918,0,0,0-.9-2.165l1.984-2.61L18.718,3.161l-2.61,1.984a7.918,7.918,0,0,0-2.165-.9L13.5,1h-3l-.443,3.248a7.918,7.918,0,0,0-2.165.9L5.282,3.161,3.161,5.282l1.984,2.61a7.918,7.918,0,0,0-.9,2.165L1,10.5V13" fill="none" stroke="currentColor" stroke-linecap="round" stroke-width="2" stroke-linejoin="round"></path><line x1="12" y1="19" x2="12" y2="13" fill="none" stroke="#7553fd" stroke-linecap="round" stroke-width="2" class="icon-accent" stroke-linejoin="round"></line><path d="M5.414,17.586,8,15V13" fill="none" stroke="#7553fd" stroke-linecap="round" stroke-width="2" class="icon-accent" stroke-linejoin="round"></path><polyline points="18.586 17.586 16 15 16 13" fill="none" stroke="#7553fd" stroke-linecap="round" stroke-width="2" class="icon-accent" stroke-linejoin="round"></polyline><circle cx="4" cy="19" r="2" fill="none" stroke="#7553fd" stroke-linecap="round" stroke-width="2" class="icon-accent" stroke-linejoin="round"></circle><circle cx="20" cy="19" r="2" fill="none" stroke="#7553fd" stroke-linecap="round" stroke-width="2" class="icon-accent" stroke-linejoin="round"></circle><circle cx="12" cy="21" r="2" fill="none" stroke="#7553fd" stroke-linecap="round" stroke-width="2" class="icon-accent" stroke-linejoin="round"></circle></g></svg>