<svg class="icon" xmlns="http://www.w3.org/2000/svg" width="24" height="24" viewBox="0 0 24 24"><g class="icon-wrapper"><path d="M10,19C5.029,19,1,14.971,1,10S5.029,1,10,1s9,4.029,9,9c-.006,4.968-4.032,8.994-9,9Zm0-16c-3.866,0-7,3.134-7,7s3.134,7,7,7,7-3.134,7-7c-.004-3.864-3.136-6.996-7-7Z" fill="currentColor"></path><path class="icon-accent" d="M22.707,21.293l-4.256-4.256c-.427,.513-.901,.987-1.414,1.414l4.256,4.256c.397,.384,1.03,.373,1.414-.025,.374-.388,.374-1.002,0-1.389Z" fill="#7553fd"></path><path class="icon-accent" d="M6,11c-.552,0-1-.448-1-1,0-2.757,2.243-5,5-5,.552,0,1,.448,1,1s-.448,1-1,1c-1.654,0-3,1.346-3,3,0,.552-.448,1-1,1Z" fill="#7553fd"></path></g></svg>