<svg class="icon" xmlns="http://www.w3.org/2000/svg" width="24" height="24" viewBox="0 0 24 24"><g class="icon-wrapper"><path d="M17,15h1.838a3,3,0,0,1,2.846,2.051L22,18,10.532,21.529a4,4,0,0,1-2.965-.246L1,18V11H2c1.105,0,3.906.438,5,2h3a4,4,0,0,1,4,4H8" fill="none" stroke="currentColor" stroke-linecap="round" stroke-width="2" stroke-linejoin="round"></path><path d="M14.414,8.414a2,2,0,0,1-2.828-2.828l4-4a2,2,0,0,1,2.828,2.828Z" fill="none" stroke="#7553fd" stroke-linecap="round" stroke-width="2" class="icon-accent" stroke-linejoin="round"></path><line x1="13.629" y1="3.543" x2="16.457" y2="6.371" fill="none" stroke="#7553fd" stroke-linecap="round" stroke-width="2" class="icon-accent" stroke-linejoin="round"></line></g></svg>